<?xml version="1.0" encoding="UTF-8" standalone="yes"?>
<svg version="1.2" width="200.000000pt" height="200.000000pt" viewBox="0 0 200.000000 200.000000" preserveAspectRatio="xMidYMid meet" baseProfile="tiny-ps" xmlns="http://www.w3.org/2000/svg">
  <title>bimi-svg-tiny-12-ps</title>
  <g transform="translate(0.000000,200.000000) scale(0.100000,-0.100000)" fill="#000000" stroke="none">
    <path d="M0 1000 l0 -1000 1000 0 1000 0 0 1000 0 1000 -1000 0 -1000 0 0&#xA;-1000z m1138 794 c189 -38 361 -162 462 -333 38 -66 80 -174 80 -208 0 -10&#xA;-13 19 -29 64 -33 95 -63 149 -125 225 -82 101 -233 196 -357 226 -336 82&#xA;-681 -108 -806 -443 -12 -33 -22 -53 -22 -45 0 28 55 156 92 211 158 239 435&#xA;358 705 303z m-281 -324 c1 -11 -4 -20 -13 -20 -8 0 -14 9 -14 20 0 11 6 20&#xA;13 20 7 0 13 -9 14 -20z m63 6 c0 -8 -4 -17 -9 -21 -12 -7 -24 12 -16 25 9 15&#xA;25 12 25 -4z m-125 -10 c12 -11 12 -16 2 -24 -9 -8 -16 -6 -24 7 -18 29 -1 41&#xA;22 17z m169 8 c18 -7 21 -30 5 -40 -12 -7 -29 12 -29 34 0 14 2 14 24 6z m50&#xA;-25 c-3 -5 -10 -7 -15 -3 -5 3 -7 10 -3 15 3 5 10 7 15 3 5 -3 7 -10 3 -15z&#xA;m-274 -15 c0 -8 -4 -12 -10 -9 -5 3 -10 10 -10 16 0 5 5 9 10 9 6 0 10 -7 10&#xA;-16z m315 -24 c-9 -15 -22 -12 -29 6 -9 24 3 36 20 19 9 -8 12 -19 9 -25z&#xA;m-130 0 c-5 -8 -11 -8 -17 -2 -6 6 -7 16 -3 22 5 8 11 8 17 2 6 -6 7 -16 3&#xA;-22z m-201 -11 c-8 -14 -34 -11 -34 4 0 8 3 17 7 20 9 9 34 -13 27 -24z m132&#xA;20 c9 -15 -7 -32 -18 -21 -6 6 -17 8 -24 5 -8 -3 -14 1 -14 10 0 16 46 21 56&#xA;6z m130 -10 c3 -6 1 -16 -5 -22 -9 -9 -14 -8 -21 3 -9 15 -4 30 10 30 5 0 12&#xA;-5 16 -11z m-211 -9 c-3 -5 -10 -10 -16 -10 -5 0 -9 5 -9 10 0 6 7 10 16 10 8&#xA;0 12 -4 9 -10z m305 -5 c0 -8 3 -14 8 -12 4 1 8 -1 10 -5 2 -9 -2 -10 -23 -2&#xA;-17 7 -21 34 -5 34 6 0 10 -7 10 -15z m-195 -25 c-5 -8 -11 -8 -17 -2 -6 6 -7&#xA;16 -3 22 5 8 11 8 17 2 6 -6 7 -16 3 -22z m-59 10 c9 0 12 -4 9 -10 -3 -5 -1&#xA;-10 4 -10 6 0 11 -7 11 -15 0 -22 -28 -18 -35 5 -3 11 -13 20 -21 20 -8 0 -14&#xA;5 -14 11 0 6 7 8 16 5 9 -3 22 -6 30 -6z m114 0 c0 -5 -7 -10 -15 -10 -8 0&#xA;-15 5 -15 10 0 6 7 10 15 10 8 0 15 -4 15 -10z m100 0 c0 -5 -4 -10 -10 -10&#xA;-5 0 -10 5 -10 10 0 6 5 10 10 10 6 0 10 -4 10 -10z m-359 -13 c-1 -12 -15 -9&#xA;-19 4 -3 6 1 10 8 8 6 -3 11 -8 11 -12z m74 -8 c-4 -5 1 -9 9 -9 21 0 21 -29&#xA;0 -37 -8 -3 -20 -1 -27 6 -8 8 -7 11 4 11 12 0 12 2 0 9 -8 5 -11 16 -8 26 4&#xA;9 11 13 17 10 6 -4 8 -11 5 -16z m403 -146 c-2 -112 -7 -168 -14 -170 -14 -5&#xA;-26 35 -13 43 5 3 9 70 9 150 0 94 4 144 11 144 7 0 9 -55 7 -167z m-508 132&#xA;c0 -8 -4 -15 -9 -15 -13 0 -22 16 -14 24 11 11 23 6 23 -9z m257 -11 c-9 -9&#xA;-28 6 -21 18 4 6 10 6 17 -1 6 -6 8 -13 4 -17z m191 7 c3 -8 -1 -12 -9 -9 -7&#xA;2 -15 10 -17 17 -3 8 1 12 9 9 7 -2 15 -10 17 -17z m-382 -16 c-1 -14 -4 -25&#xA;-8 -25 -5 0 -8 3 -7 6 0 4 -5 10 -11 14 -15 9 -5 30 14 30 7 0 13 -11 12 -25z&#xA;m171 -11 c6 -19 -15 -37 -33 -29 -13 5 -15 9 -6 12 6 3 12 11 12 20 0 15 22&#xA;14 27 -3z m-257 -4 c0 -5 -4 -10 -10 -10 -5 0 -10 5 -10 10 0 6 5 10 10 10 6&#xA;0 10 -4 10 -10z m186 -18 c0 -9 3 -23 5 -31 2 -8 -4 -17 -14 -19 -17 -3 -19&#xA;14 -8 77 2 10 15 -11 17 -27z m-146 4 c0 -18 -17 -29 -30 -21 -8 5 -7 11 1 21&#xA;15 18 29 18 29 0z m-60 -16 c0 -5 -4 -10 -10 -10 -5 0 -10 5 -10 10 0 6 5 10&#xA;10 10 6 0 10 -4 10 -10z m155 0 c3 -5 0 -10 -7 -10 -10 0 -10 -2 1 -9 22 -14&#xA;5 -44 -19 -36 -13 4 -20 2 -18 -5 4 -14 -49 -23 -57 -9 -10 14 5 31 18 21 13&#xA;-10 61 10 51 21 -9 8 3 37 15 37 5 0 13 -4 16 -10z m-65 -9 c0 -12 -20 -25&#xA;-27 -18 -7 7 6 27 18 27 5 0 9 -4 9 -9z m361 -8 c11 -13 11 -17 2 -20 -9 -3&#xA;-13 -28 -13 -74 0 -44 -4 -68 -10 -64 -5 3 -10 35 -10 71 0 36 -4 64 -10 64&#xA;-6 0 -5 8 2 20 16 24 22 25 39 3z m-724 -35 c-3 -7 -5 -2 -5 12 0 14 2 19 5&#xA;13 2 -7 2 -19 0 -25z m303 17 c0 -8 -7 -15 -15 -15 -16 0 -20 12 -8 23 11 12&#xA;23 8 23 -8z m248 3 c-7 -19 -38 -22 -38 -4 0 10 9 16 21 16 12 0 19 -5 17 -12z&#xA;m433 -5 c11 -13 11 -17 2 -20 -9 -3 -13 -32 -13 -99 0 -56 -4 -94 -10 -94 -6&#xA;0 -10 38 -10 94 0 67 -4 96 -12 99 -10 3 -10 7 1 20 7 10 17 17 21 17 4 0 14&#xA;-7 21 -17z m-727 -14 c-3 -5 -10 -7 -15 -3 -5 3 -7 10 -3 15 3 5 10 7 15 3 5&#xA;-3 7 -10 3 -15z m354 0 c-2 -3 3 -13 11 -22 10 -13 11 -20 1 -31 -17 -21 -37&#xA;-9 -38 22 0 15 2 31 5 35 5 9 26 5 21 -4z m-108 -18 c0 -25 -12 -32 -30 -20&#xA;-10 5 -11 9 -3 9 7 0 10 7 7 15 -4 9 0 15 10 15 9 0 16 -8 16 -19z m847 -18&#xA;c-3 -10 -5 -4 -5 12 0 17 2 24 5 18 2 -7 2 -21 0 -30z m-1360 -20 c-3 -10 -5&#xA;-4 -5 12 0 17 2 24 5 18 2 -7 2 -21 0 -30z m268 27 c3 -5 -1 -10 -9 -10 -9 0&#xA;-16 5 -16 10 0 6 4 10 9 10 6 0 13 -4 16 -10z m45 -16 c0 -16 -16 -19 -25 -4&#xA;-8 13 4 32 16 25 5 -4 9 -13 9 -21z m115 16 c3 -5 0 -10 -7 -10 -8 0 -7 -4 4&#xA;-11 22 -12 12 -39 -14 -39 -14 0 -18 5 -15 15 4 8 2 17 -4 21 -6 4 -6 11 2 20&#xA;14 16 25 18 34 4z m140 -10 c3 -5 -1 -10 -9 -10 -9 0 -16 5 -16 10 0 6 4 10 9&#xA;10 6 0 13 -4 16 -10z m347 -32 c-7 -7 -12 -28 -12 -47 0 -41 -9 -81 -19 -81&#xA;-9 0 -5 145 4 160 5 9 11 8 23 -4 13 -12 14 -18 4 -28z m156 22 c9 -14 9 -20&#xA;1 -20 -8 0 -10 -18 -7 -55 3 -37 1 -54 -6 -52 -6 2 -12 27 -14 55 -2 29 -7 52&#xA;-13 52 -5 0 -4 9 3 20 7 11 15 20 18 20 3 0 11 -9 18 -20z m-712 -8 c-3 -3 -1&#xA;-11 5 -18 9 -11 7 -15 -5 -20 -19 -7 -29 0 -32 23 -4 24 4 33 22 26 8 -3 12&#xA;-8 10 -11z m184 -13 c0 -5 -7 -9 -15 -9 -15 0 -20 12 -9 23 8 8 24 -1 24 -14z&#xA;m-270 1 c0 -5 -4 -10 -9 -10 -6 0 -13 5 -16 10 -3 6 1 10 9 10 9 0 16 -4 16&#xA;-10z m235 -28 c-2 -3 3 -11 12 -17 14 -10 15 -16 5 -28 -10 -12 -9 -16 4 -21&#xA;9 -4 14 -9 11 -13 -4 -3 -2 -12 4 -19 14 -17 3 -34 -22 -34 -21 0 -27 20 -6&#xA;20 6 0 4 5 -6 11 -12 7 -16 17 -12 30 4 12 2 19 -7 19 -10 0 -10 2 1 9 11 7&#xA;11 10 -1 17 -18 11 -30 42 -22 56 3 5 14 2 25 -8 11 -9 17 -19 14 -22z m269&#xA;15 c0 -9 -1 -33 -2 -52 -2 -45 -22 -46 -22 -1 0 19 -5 38 -10 41 -8 5 -7 11 1&#xA;21 15 18 34 13 33 -9z m-474 -7 c0 -5 -4 -10 -10 -10 -5 0 -10 5 -10 10 0 6 5&#xA;10 10 10 6 0 10 -4 10 -10z m320 1 c0 -6 -4 -13 -10 -16 -5 -3 -10 1 -10 9 0&#xA;9 5 16 10 16 6 0 10 -4 10 -9z m747 -13 c-3 -8 -6 -5 -6 6 -1 11 2 17 5 13 3&#xA;-3 4 -12 1 -19z m-1103 -9 c-3 -5 -10 -7 -15 -3 -5 3 -7 10 -3 15 3 5 10 7 15&#xA;3 5 -3 7 -10 3 -15z m311 12 c7 -12 -12 -24 -25 -16 -11 7 -4 25 10 25 5 0 11&#xA;-4 15 -9z m-265 -21 c0 -5 -4 -10 -9 -10 -6 0 -13 5 -16 10 -3 6 1 10 9 10 9&#xA;0 16 -4 16 -10z m116 -5 c-3 -9 0 -15 9 -15 18 0 20 -20 3 -20 -7 0 -5 -5 5&#xA;-11 20 -12 23 -45 3 -52 -8 -3 -22 1 -33 8 -17 14 -17 14 1 15 18 0 18 1 3 13&#xA;-13 10 -18 53 -8 75 5 11 22 -1 17 -13z m214 5 c0 -5 -4 -10 -10 -10 -5 0 -10&#xA;5 -10 10 0 6 5 10 10 10 6 0 10 -4 10 -10z m-43 -26 c-9 -9 -28 6 -21 18 4 6&#xA;10 6 17 -1 6 -6 8 -13 4 -17z m-317 12 c0 -11 -19 -15 -25 -6 -3 5 1 10 9 10&#xA;9 0 16 -2 16 -4z m67 -10 c-3 -7 0 -19 6 -25 18 -19 -21 -45 -41 -29 -9 8 -10&#xA;14 -3 16 6 2 8 8 5 13 -9 16 4 39 22 39 10 0 14 -6 11 -14z m323 0 c0 -17 -14&#xA;-29 -23 -20 -8 8 3 34 14 34 5 0 9 -6 9 -14z m430 -12 c0 -8 -4 -12 -10 -9 -5&#xA;3 -10 10 -10 16 0 5 5 9 10 9 6 0 10 -7 10 -16z m-370 -31 c0 -16 -10 -16 -32&#xA;1 -28 21 -23 36 7 23 14 -7 25 -18 25 -24z m-100 17 c0 -5 -4 -10 -10 -10 -5&#xA;0 -10 5 -10 10 0 6 5 10 10 10 6 0 10 -4 10 -10z m316 -1 c8 -14 -11 -33 -25&#xA;-25 -11 7 -4 36 9 36 5 0 12 -5 16 -11z m-346 -13 c0 -8 6 -16 13 -19 9 -3 9&#xA;-8 -2 -21 -8 -9 -16 -14 -18 -12 -3 2 -3 6 -1 9 2 2 -3 11 -10 20 -8 9 -11 21&#xA;-7 27 9 15 25 12 25 -4z m440 -1 c0 -8 -4 -15 -9 -15 -13 0 -22 16 -14 24 11&#xA;11 23 6 23 -9z m-380 -16 c0 -5 -4 -9 -10 -9 -5 0 -10 7 -10 16 0 8 5 12 10 9&#xA;6 -3 10 -10 10 -16z m100 1 c0 -5 -4 -10 -10 -10 -5 0 -10 5 -10 10 0 6 5 10&#xA;10 10 6 0 10 -4 10 -10z m-40 -32 c0 -5 -4 -8 -10 -8 -5 0 -10 5 -10 10 0 6&#xA;-7 10 -16 10 -8 0 -12 4 -9 10 6 10 45 -9 45 -22z m-336 14 c2 -4 1 -14 -4&#xA;-21 -11 -19 -41 -6 -34 14 6 16 29 20 38 7z m446 -3 c0 -13 -16 -18 -38 -12&#xA;-32 8 -27 20 8 20 17 0 30 -4 30 -8z m108 -11 c-2 -18 -10 -23 -35 -24 -22 -1&#xA;-33 3 -33 12 0 10 8 13 24 10 18 -3 23 -1 19 10 -3 9 1 14 12 14 11 0 15 -7&#xA;13 -22z m90 3 c3 -8 -1 -12 -9 -9 -7 2 -15 10 -17 17 -3 8 1 12 9 9 7 -2 15&#xA;-10 17 -17z m-533 -11 c3 -5 3 -15 -1 -21 -6 -11 -23 6 -24 24 0 10 18 9 25&#xA;-3z m156 -5 c-1 -15 -24 -12 -29 3 -3 9 2 13 12 10 10 -1 17 -7 17 -13z m104&#xA;5 c3 -5 -1 -10 -9 -10 -9 0 -16 5 -16 10 0 6 4 10 9 10 6 0 13 -4 16 -10z&#xA;m105 0 c0 -5 -4 -10 -10 -10 -5 0 -10 5 -10 10 0 6 5 10 10 10 6 0 10 -4 10&#xA;-10z m130 -3 c0 -8 -3 -17 -7 -20 -9 -9 -34 13 -27 24 8 14 34 11 34 -4z&#xA;m-404 -18 c10 -17 -13 -36 -27 -22 -12 12 -4 33 11 33 5 0 12 -5 16 -11z m114&#xA;-4 c0 -8 -4 -15 -10 -15 -5 0 -10 7 -10 15 0 8 5 15 10 15 6 0 10 -7 10 -15z&#xA;m91 2 c-1 -12 -15 -9 -19 4 -3 6 1 10 8 8 6 -3 11 -8 11 -12z m-124 -33 c-9&#xA;-9 -28 6 -21 18 4 6 10 6 17 -1 6 -6 8 -13 4 -17z m83 5 c0 -11 -27 -12 -34 0&#xA;-3 4 -3 11 0 14 8 8 34 -3 34 -14z m98 10 c-2 -6 -8 -10 -13 -10 -5 0 -11 4&#xA;-13 10 -2 6 4 11 13 11 9 0 15 -5 13 -11z m43 -12 c-1 -12 -15 -9 -19 4 -3 6&#xA;1 10 8 8 6 -3 11 -8 11 -12z m49 3 c0 -5 -4 -10 -10 -10 -5 0 -10 5 -10 10 0&#xA;6 5 10 10 10 6 0 10 -4 10 -10z m-160 -26 c0 -8 -4 -14 -10 -14 -5 0 -10 9&#xA;-10 21 0 11 5 17 10 14 6 -3 10 -13 10 -21z m-60 -5 c0 -5 -4 -9 -10 -9 -5 0&#xA;-10 7 -10 16 0 8 5 12 10 9 6 -3 10 -10 10 -16z m110 -5 c0 -9 -5 -14 -12 -12&#xA;-18 6 -21 28 -4 28 9 0 16 -7 16 -16z m42 1 c0 -5 -5 -11 -11 -13 -6 -2 -11 4&#xA;-11 13 0 9 5 15 11 13 6 -2 11 -8 11 -13z m-664 -70 c2 -18 2 -18 -8 -3 -11&#xA;18 -40 14 -40 -6 0 -7 14 -22 30 -34 35 -26 38 -45 9 -65 -23 -17 -59 -11 -59&#xA;9 0 12 4 12 20 2 16 -10 22 -10 32 0 11 11 7 18 -20 40 -36 30 -41 56 -14 71&#xA;25 15 46 9 50 -14z m427 14 c4 -6 0 -9 -11 -7 -11 2 -20 -4 -22 -14 -2 -12 3&#xA;-18 15 -19 17 -1 17 -2 0 -6 -15 -4 -18 -12 -15 -44 2 -25 -1 -39 -8 -39 -15&#xA;0 -23 85 -10 108 17 30 40 40 51 21z m395 0 c0 -6 -7 -9 -15 -5 -8 3 -15 4&#xA;-15 2 0 -3 -3 -11 -6 -20 -4 -11 0 -16 12 -16 17 0 17 -1 0 -13 -14 -10 -17&#xA;-23 -14 -45 3 -22 0 -32 -8 -32 -17 0 -11 104 6 125 15 18 40 20 40 4z m34&#xA;-10 c-3 -5 -10 -7 -15 -3 -5 3 -7 10 -3 15 3 5 10 7 15 3 5 -3 7 -10 3 -15z&#xA;m-295 -7 c12 -23 -11 -62 -37 -62 -16 1 -16 1 1 11 25 15 23 59 -4 59 -19 0&#xA;-21 -5 -17 -60 2 -48 0 -60 -12 -60 -12 0 -15 14 -15 65 l0 65 37 0 c26 0 40&#xA;-6 47 -18z m357 -17 c9 -8 11 -15 5 -15 -15 0 -14 -67 2 -73 6 -3 2 -6 -9 -6&#xA;-19 -1 -22 5 -26 44 -5 66 1 77 28 50z m-818 -17 c20 -20 14 -28 -19 -28 -23&#xA;0 -30 -4 -27 -17 2 -9 14 -20 28 -24 21 -7 19 -8 -10 -6 -38 2 -47 18 -36 63&#xA;7 26 43 33 64 12z m93 -35 l5 -43 -33 0 c-36 0 -56 25 -32 41 21 13 35 11 21&#xA;-3 -16 -16 -15 -28 3 -28 10 0 15 11 15 35 0 35 -22 50 -33 23 -3 -8 -6 -5 -6&#xA;5 -1 14 5 18 27 15 24 -3 28 -8 33 -45z m149 27 c22 -42 -21 -90 -62 -69 -44&#xA;23 -27 89 22 89 19 0 33 -7 40 -20z m300 8 c0 -4 -7 -8 -15 -8 -16 0 -31 -43&#xA;-20 -59 3 -6 0 -11 -7 -11 -9 0 -13 14 -13 43 0 41 1 44 27 44 16 0 28 -4 28&#xA;-9z m88 0 c30 -30 -7 -95 -47 -80 -49 18 -38 92 14 92 12 0 26 -5 33 -12z&#xA;m124 -33 c2 -26 -1 -45 -7 -45 -5 0 -10 20 -10 45 -1 58 12 58 17 0z m148 36&#xA;c0 -5 -9 -7 -20 -4 -28 7 -25 -7 6 -32 24 -19 25 -22 10 -37 -19 -19 -56 -13&#xA;-56 10 0 13 3 13 19 -2 10 -10 22 -13 25 -8 3 5 -6 19 -19 30 -29 25 -23 52&#xA;11 52 13 0 24 -4 24 -9z"/>
    <path d="M590 790 c0 -5 9 -10 21 -10 11 0 17 5 14 10 -3 6 -13 10 -21 10 -8&#xA;0 -14 -4 -14 -10z"/>
    <path d="M815 781 c-8 -26 4 -51 26 -51 15 0 19 7 19 35 0 28 -4 35 -19 35&#xA;-11 0 -22 -8 -26 -19z"/>
    <path d="M1217 793 c-12 -11 -8 -50 7 -62 19 -16 40 12 32 44 -6 24 -25 33&#xA;-39 18z"/>
  </g>
</svg>