<?xml version="1.0" encoding="utf-8"?>
<svg viewBox="0 0 400 400" version="1.2" baseProfile="tiny-ps" xmlns="http://www.w3.org/2000/svg">
  <title>svgconvert</title>
  <g fill-rule="evenodd">
    <path fill="#f6eac7" d="M166 103c-2 1 0 4 2 4v1h-2l-1 1c2 1 5 0 5-1l-3-3-1-1s0-1 0 0h2l2-1h-4m-10 0c-3 2-2 5 2 6v1h-3v1c2 2 5 1 5-2l-2-2c-3-2-3-3 0-2 2 0 2-1 0-2h-2m23 0c-1 1 0 4 2 4l1 1-2 1c-2 0-2 0-1 1l4-1c0-2 0-2-2-3s-2-2 0-2l1-1h-3m-6 2c-2 1 0 4 2 4v1l-2 1c-1 0-2 0 0 1l3-2-3-3 1-1c2 0 2 0 1-1h-2m-30 2c-2 2 0 4 3 5v1h-3l-1 1c2 2 5 1 5-1v-2l-2-1h-1v-2h2c1 0 2 0 0-1h-3m45 0c-1 0-1 1 1 2 1 2 1 2-1 2-1 0-1 0 0 0h2c1-1 1-2-1-2v-2h1-2m8 4v2c2 1 2 1 0 1v1c1 1 2 0 2-1l-1-1v-2h1-2m-61 2c-1 1 0 2 1 3l2 2h-2c-1 0-2 0 0 1 1 1 2 1 3-1 0-1 0-2-2-3s-2-1 0-1l1-1h-3m67 1c-1 1-1 2 1 3 1 1 0 2-1 1h2c1-1-1-2-1-2v-1l1-1h-2m-36 2c-3 2-1 6 2 6l1 1-3 1-1-1c-1 1 2 3 3 2 3-1 3-3 0-5-3-1-2-3 1-3 1 1 2 0 1-1h-4m-12 1-1 1c-5 0-5 6 0 8l1 1v2c0 3 0 3-2 2l-2-1c-2 1 0 4 2 4l2 1h2l1-1c5-1 5-8 0-9l-2-1 1-2c0-2 0-3 2-2h2l-3-2-1-1-1-1-1 1m-25 1c-2 1 0 5 2 4l1 2h-2c-2 0-2 0-1 1 2 1 5 0 4-2l-3-3-1-1h3v-2l-3 1m79 2c-1 1-1 1 1 2 1 1 1 2-1 2-1 0-1 0 0 0 2 2 3-1 1-2v-2h1-2m-53 1c0 2-1 3-3 1l1-1h2m-16 3c-4 2-4 6 0 7l1 3c0 2 0 2-2 1h-2l3 2 1 1h1l1-1c4 0 4-6 0-7l-1-2c0-2 0-2 2-2 3 1 1-1-1-2l-2-1-1 1m-16 1c-2 2-2 4 1 6 2 1 3 3 2 3h-3c-1-1-2 0-1 1 3 2 8-1 6-4l-2-1-1-1h-1l-1-2h4c0-2-2-2-4-2m89 1 1 3 3 4c2 4 2 1-1-3-2-4-2-5-3-4m-72 1v1c-1 1-2 0-2-1h2m18 2-2 3v-4l2 1m74-1-7 11h2c3 0 3-1 3 33a515 515 0 0 0 2 31h2v-31c0-35 0-33 3-33h2a250 250 0 0 0-7-11m-90 5v2c-1 1-1 1-1-1s0-2 1-1m-26 6c-3 1-3 4 0 5l1 1h1l1 2h-5c0 2 5 3 6 0 1-1 0-4-2-4h-1v-1h-1l2-1c3 0 3-1 1-2h-3m15 0-2 1c-5 1-5 8 0 10l2 1v2c0 3-1 4-2 2l-4-1c-1 1 2 5 4 5h2l1 1 1-1c6-2 6-8 1-10l-2-1v-3c0-3 1-3 2-2l3 1c1-1-1-3-4-4l-1-1h-1m26 0c-2 1-2 4-1 5l2 1 1 1h1v1c0 1-2 2-3 1s-3 0-1 1c2 2 2 2 4 1 3-1 3-4 1-6l-2-1h-1l-1-2 2-1 1 1 2-1c0-1-3-2-5-1m108 2-3 5-2 4h4v25c0 28 0 26 3 24l1-1v-12l1-24v-12h4l-1-3-4-5-2-3-1 2m-120-1c-3 1-3 4-1 5l2 1h1l1 2h-5c0 2 3 3 5 2s3-4 0-5l-2-1-1-1 2-1c2 0 3 0 2-1-2-2-3-2-4-1m-14 5c0 2-1 3-2 1-1-1-1-3 1-3l1 2m3 7c1 1 0 4-1 4l-1-2c0-3 0-3 2-2m-18 2-2 1c-4 2-4 5 0 8l1 3c0 2 0 3-2 1h-2c-1 1 1 2 3 3l1 1h1l1-1c4-1 4-7 1-8-2-1-2-2-2-4h2l3-1-3-2-1-1h-1m46 1c-3 1-3 4 0 5l1 1h1l1 2h-2v-1 1h-2c-1-1-2 0-1 1s3 2 5 1 2-4 0-5l-2-2c0-2 1-2 2-1 2 0 1-1-1-2h-2m-13 1-2 1c-4 2-4 7 1 8l1 1v2c0 3 0 3-2 2h-3l3 3 2 1h1l2-1c5-1 5-8 0-9-1 0-2-1-2-3s1-3 2-1l3-1-3-2-2-1h-1m14 1c0 1-1 2-2 1l1-2 1 1m-47 1-1 2c0 1-2-1-1-2h2m33 3c0 2-1 2-2 1v-2c2-2 2-1 2 1m96 6c-3 5-3 5-1 5 3 0 2-1 2 16l1 16h2l2-1v-31h4l-6-10-4 5m-127-2c0 2-1 3-2 3v-3h2m13 1h-1c-3 0-2 5 1 6l1 2c0 2-1 2-2 1h-2c0 2 3 3 6 2 2-1 2-4 0-6-2 0-2-1-2-2l2-1h1l-1-1-2-1h-1m21 1v3c-1 1-2 1-2-1 0-3 0-3 2-2m19 1-1 1c-3 0-4 5 0 7l1 2c0 2 0 3-1 2h-3l3 2 1 1 5-3c1-2 0-4-3-5l-1-3c0-1 1-2 2-1h2l-3-2-1-1h-1m-40 1-1 1 1-2v1m40 2c1 2 0 4-1 2v-2h1m109 6c-3 5-3 5-1 5s3 1 3 4-5 9-13 15c-13 10-34 12-53 5h-5c1 2 19 7 30 7 17 0 27-5 41-20l4-4v-3c0-4-1-4 3-4h1l-3-5-3-5-4 5m-146-3-1 1c0 1-1 1-1-1h2m-16 1c-3 2-4 4-1 7l2 3c0 2-1 3-2 1l-2-1 3 4 1 1 2-1c3-1 3-5 1-7-2-1-2-2-2-3l1-1h2l-2-3h-3m1 4-1 1c-1 0-1-3 1-3v2m39-1-1 1c-3 0-3 5 0 7l2 2c0 2-2 3-2 1h-2l2 3 1 1h1l1-1c4 0 4-6 1-7l-2-2c0-2 0-3 2-2l2-1c-1-1-4-3-5-2m16 0c1 1 0 2-1 2l-1-2h2m-32 2-1 1c-5 1-5 6 0 8l2 3c0 3-1 4-3 2h-3l4 3 1 1h1l2-1c5-1 6-8 0-9l-2-1v-2c0-2 1-3 2-2l3 1c1-1-1-3-3-3l-2-1h-1m17 2-1 2-1-3c1-1 2-1 2 1m24-1-1 1c-5 1-5 7-1 9 2 1 3 1 3 4-1 2-2 2-3 0-2-2-4 0-3 2l4 2h1l1 1 3-2c5-1 4-7-1-9h-2v-3c0-2 1-2 2-1h3c1-1-2-3-3-3l-2-1h-1m-40 3-1 2c-1 1-2-2-1-3s1 0 2 1m-22 1-1 2v-1c0-2 0-2 1-1m63 1c0 2-1 3-2 2l-1-2c0-2 2-2 3 0m-23 2-1 2-1-2h2m-16 3v3c-1 2-2 1-2-1 0-3 1-3 2-2m-19 1c-3 1-3 3-1 5l2 2c0 2 0 2-2 1-1-1-2-1-1 1 1 1 3 2 5 1 3-1 3-4 0-6-2-1-2-3 0-3 2 1 2 0 0-1l-2-1-1 1m60 0c1 1 1 4-1 4l-1-2c0-2 1-2 2-2m-59 2-1 1v-2l1 1m42 1-2 1c-5 2-5 8 0 10l2 1v3c0 2-1 3-3 1l-2-1c-2 1 0 4 3 5l2 1h1l1-1c2 0 5-3 5-5 0-3-3-6-6-6v-3c0-2 0-2 2-1h3l-4-4h-1l-1-1m29 1-2 1c-4 1-4 6 0 8 2 0 2 0 2 2 0 3-1 3-2 1h-3l3 4h3l2-1c4-1 3-6-1-8l-2-2c0-2 1-3 2-2h3l-3-3h-2m-69 3-1 2-1-2h2m69 2c0 2-1 2-2 0v-1c1-2 2-1 2 1m-29 0c0 2-1 3-3 2-1-2 0-4 2-4l1 2m-17 1h-1c-5 2-5 6-1 8 2 1 3 2 2 4h-5l4 3 1 1h1l1-1c4 0 5-6 1-8-2-1-2-1-2-3s0-2 2-1h2l-3-3h-1l-1-1v1m0 3v2c-1 1-2 0-2-1s2-3 2-1m48 1c1 1 0 4-1 3v-3h1m-28 3c1 1 0 3-2 3v-2c0-2 0-3 2-1m11 0c-3 2-3 5 0 7 1 1 2 1 2 3s-1 2-2 1h-3l3 3h4c4 0 4-6 0-8l-1-2c0-2 0-2 1-1h2c1-1 0-2-2-3h-4m-28 4-1 2-1-3 2 1m30 0-1 1c-2 0-2-3 0-3l1 2m21 1c-1 1 11 6 19 8s19 1 27-2l6-3c-17 5-32 5-48-2-3-2-3-2-4-1m-19 5v1c-1 1-1 1-1-1s0-2 1 0m-5 33c-3 2-5 5-6 10 0 2 0 3-2 3s-2 2 0 2h2v10c0 10 0 11-2 11l-1 1h12l-2-1c-3 0-3 0-3-11v-10h4l3-1-3-1h-4v-3c0-7 4-10 8-7 2 2 2 2 2 0 2-3-3-5-8-3m105 0c-3 2-5 4-5 9 0 4 0 4-3 4-1 0-1 2 1 2h1l1 9c0 11 0 11-2 12-4 1-2 1 4 1h6l-2-1c-2-1-2 0-2-10-1-12-1-11 3-11l4-1-4-1c-4 0-4 0-3-5 0-4 1-6 4-6l4 2c1 1 2-1 2-3-1-1-6-2-9-1m13 2c-2 1 0 5 2 5l3-4c0-1-1-3-3-3l-2 2m-237 0c-5 2-7 6-6 11 0 4 3 6 11 10 4 2 5 4 5 6 1 9-13 10-15 1l-2-2h-1l1 4c0 5 1 6 9 6 7 0 11-3 12-9 1-4-1-7-8-11-8-4-10-7-8-12 3-5 12-3 12 2l1 1h1v-6c-2-2-9-2-12-1m138 1 1 1c3 0 2 0 3 15 0 16 0 16-3 17-3 0-2 1 2 1h6c4 1 5-1 2-1-3-1-3-2-3-8v-5h4c9-1 13-4 13-11 0-5-2-8-6-9h-19m18 3c5 3 4 12-2 14l-7 1-1-17c1 0 8 0 10 2m97 0-2 3c-1 3-1 4-3 4-1 0-1 2 1 2h1v8c0 10 1 12 2 14 2 2 10 1 10-2l-1-1c-6 3-7 1-7-11 0-9 0-8 4-8l4-1-4-1c-4 0-4 0-4-4l-1-3m-227 7c-5 3-8 10-6 17 2 8 11 10 17 5 3-2 2-3-1-1-6 3-13-1-13-8v-2h16v-2c0-8-6-12-13-9m25 0-5 5c0 1 2 1 3-1 3-5 9-2 9 5 0 2 1 2-3 3-7 1-11 4-11 7 0 6 6 8 13 3l1-1 1 2c1 2 3 2 6 1 2-1 2-2 0-2-2 1-3 0-3-9 0-10 0-11-3-13h-8m37 0c-7 2-10 16-4 22 4 4 13 4 17-1s4-15-1-19c-2-2-8-3-12-2m82 0c-3 1-4 2-1 2 2 1 2 1 2 10 0 10 0 10-2 11-3 1-1 1 4 1 6 0 8 0 5-1s-3-1-3-9l1-8c2-3 5-4 7-2 1 1 3-3 2-4-2-2-6 0-8 3l-2 2v-4c0-2 0-2-5-1m25 0c-10 5-10 21 0 24 9 3 16-2 16-12s-8-16-16-12m41 0-2 1 1 1c2 0 2 1 2 10 0 10 0 11-2 11l-1 1h5c6 0 7 0 4-1-2-1-2-1-2-13v-11h-1l-4 1m34 0c-2 2-3 3-3 6 0 4 1 5 7 8 5 2 6 3 5 6-1 4-9 4-10 1l-1-2c-1-3-2 1-1 4 0 3 10 3 13-1 5-4 3-8-5-12-4-2-5-3-5-6 0-4 8-4 10 0l1 2v-6h-11m-238 1c2 1 4 6 3 8H87c-2-2 1-7 4-8h4m63 1c6 2 7 16 2 20-3 2-7 2-9-1-5-6-4-19 2-20l5 1m108 0c5 4 5 16 1 19-4 5-10 2-12-5-2-10 4-19 11-14m-145 14 1 3-2 1c-4 4-10 2-8-3 0-1 1-2 5-3 4-2 4-2 4 2" />
    <path fill="#042550" d="M0 200v200h400V0H0v200M218 43c57 8 97 48 107 105 4 29-4 65-21 85a122 122 0 0 0-78-186A122 122 0 0 0 99 236l-4-5c-22-29-27-73-12-111 21-53 78-86 136-77m-49 59c1 1 1 2-1 2l1 1c2 2 0 6-3 5-2-1-2-3 0-2v-2c-2-1-2-2-1-4h4m-11 1c2 1 2 3 0 2-1 0-1 1 1 2 3 1 1 6-3 5-1 0-3-1-2-2h2v-1l-1-1c-3-2 0-7 3-5m24 0v3c3 2 0 6-3 4v-3c-2-1-1-3 1-4h2m-6 3-1 1v1c3 1 1 6-2 4-2 0-2-2-1-2h1v-1c-2 0-2-3 0-4 1-1 3 0 3 1m-30 0c2 1 2 3 0 3l1 1c2 1 2 4-1 5-1 1-4 0-4-1l1-2h1v-1c-2 0-3-3-1-4 1-2 1-2 3-1m45 0-1 2 1 1c1 2-1 4-3 3v-2h1l-1-1c-2-2 1-5 3-3m7 4v2l1 3c-1 1-2 2-3 1v-3l-1-2 3-1m-60 2v3c2 1 2 3 0 4-1 2-2 2-3 0v-1l1-1v-1l-1-1c-2-2 1-4 3-3m66 2v2c2 2 0 4-2 3v-2l-1-3h3m-35 2c2 1 2 3 0 2-2 0-1 1 0 2 3 1 3 4 0 6h-3l-2-2c0-1 1-2 2-1h1l-1-2c-4-2-1-7 3-5m-13 0 1 1 4 3c0 1-3 2-4 1s-1-1-1 1l1 2c6 2 6 10 0 11l-1 1h-2l-2-1-3-4c0-2 2-2 3-1 2 2 2 1 2-1l-1-2c-5-1-5-10 0-10l1-1h2m-23 2-1 1v2c3 2 0 7-3 5-2-1-2-3 0-3v-1c-1-1-2-2-1-3 1-2 3-3 5-1m77 1v3c2 1 0 4-2 3v-2h1l-1-1v-3h2m-57 2v2l1-1v-2l-1 1m-9 4v2h-2l-1 1 2 2c3 1 3 6-1 8h-1l-1 1-1-1h-1c-2-1-3-3-2-4h2c1 1 1 1 1-1l-1-2c-3-1-3-5 0-7l2-1 2 1 2 1m-18 0c2 1 3 3 1 3-2-1-2 1 0 2s2 4-1 6l-1 1-2-1c-2-1-3-3-1-3h1c1 1 1 0 1-1l-1-1c-3-1-3-5 0-6h3m89 2 3 9v2l-2-3-3-6-1-3c1-1 1-1 3 1m22 7c3 6 3 6 0 6h-2v3a1176 1176 0 0 0-1 61l-2-1h-3v-63h-2c-3 0-3-1 3-11 2-3 2-4 7 5m-81-4 1 1v-2c-1-1-1-1-1 1m-15 4 1 1v-2l-1 1m-9 4 2 2 4 4h-4c-2-1-2-1-2 1v3h2c5 2 6 8 1 11l-3 1-1 1-1-1-1-1c-2 0-5-4-5-5h5c1 2 1 2 1-1l-1-2c-6-3-6-10 0-12l1-1h2m28 0c2 1 3 3 2 3h-2l-1 1 1 1c3 1 3 7 0 7l-1 1h-1l-1-1-2-2 2-1 1 1-1-3c-3-1-3-5 0-7h3m-42 0 3 3h-2l-1 1 1 1 2 3c0 4-5 5-7 2-1-2 1-3 2-1v-1l-1-1c-2-2-2-5 0-6l1-1h2m152 6c4 6 4 7 1 7h-2v47l-5 3-1-25v-25h-2l-1-1 6-12 4 6m-122-5c2 2 2 4 0 3-2 0-1 1 0 2 3 2 3 5 1 6l-2 1c-1 1-5-2-5-3h3l1-1-2-1c-2-2-2-5 0-7h4m-19 5v2c1 1 1 1 1-1s0-2-1-1m30 3 1 1v-1h-1m-12 1 1-1h-1v1m-15 6c0 2 1 2 2 1v-2c-1-1-2-1-2 1m-14 0 3 3c0 2-2 2-3 1s-1-1-1 1l1 3c4 2 4 7 0 8l-2 2h-1l-2-2c-3-1-4-4-2-4l3 1 1 1v-2l-1-2c-4-3-4-8-1-9l2-2h2l1 1m47 1c2 1 3 3 0 2-2 0-2 1 0 2 3 2 3 5-1 7-2 1-6-2-5-3h2c1 1 2 0 2-1l-2-1c-3-2-3-4 2-7l2 1m-14 0 2 1c2 1 3 4 1 4h-2c-1-1-1-1-1 1l1 2c6 2 6 10 0 11l-1 1h-2l-2-1-4-4c1-1 3-2 4-1 2 2 2 2 2-1v-2l-2-1c-5-2-5-7 0-8l2-2h2m-37 3v1l1-1h-1m34 2v2l1-1v-2l-1 1m105 7c3 6 3 6 0 6h-2v15c1 17 1 16-2 16-3 1-3 1-3-16v-15l-2-1h-2l7-11 4 6m-119-1 2 2-3 1c0-1 0-1 0 0v2c4 0 4 5 1 7-3 1-8-2-6-4h3l-1-2c-3-1-3-4 0-6l1-1h2l1 1m-18 0 1 1v-2l-1 1m59 4c2 1 1 3-1 2-1-1-1-1-1 1l1 2c4 1 4 6 0 7l-2 1h-2l-4-4h4c1 1 1 1 1-1l-1-1c-1 0-3-3-3-5 0-1 1-4 3-4h1c1-1 2-1 4 2m-24-1c0 1 0 2 1 0v-1c-1-1-1-1-1 1m19 3v1l1-1-1-1v1m117 5c4 6 4 6 1 6h-2v6l-1 1a54 54 0 0 1-62 21c-8-2-13-4-12-6l5 1c24 8 45 3 61-13l4-4v-6l-2-1h-2c0-2 6-10 6-10l4 5m-164 0c1 2-1 3-2 1l-1 1c0 2 0 2 2 3 3 1 2 7-1 8l-1 1c-1 1-2 0-2-1l-1-1-3-4c2-1 3-1 3 1l1 1v-2l-1-3c-3-3-3-6 1-8h1l2 1 2 2m36 0 2 1c2 1 3 3 2 3h-2c-1-1-1 0-1 1l1 2c4 2 3 9 0 9h-1l-2 1-1-2c-3-1-3-3-2-4l2 1c1 1 1 1 1-1l-1-2c-3-2-3-8 0-8l1-1h1m-41 2h1l-1-1v1m55 0v1l1-2c-1-1-1 0-1 1m-29 1h1c2 0 5 3 3 4h-3c-1-1-1-1-1 1l1 2c6 2 6 8 1 10l-2 2h-2l-2-1c-2-1-4-4-3-5h3c2 2 2 1 2-1s0-2-2-3c-4-2-4-8 0-9l2-1c1-1 2 0 2 1m41 1h1l4 4c0 1-2 2-4 1-1-2-1-1-1 0 0 2 0 2 2 3 5 2 5 8 0 10l-2 1h-2l-2-1-4-4 4-1c1 2 2 2 2 0v-2l-2-1c-5-2-5-7 0-9l2-2 2 1m-27 0v2-2m-17 3v2l1-1c0-2 0-2-1-1m41 1-1 2c1 1 2 1 2-1l-1-1m-62 1h1l-1-1v1m40 2v1h1l-1-1m-31 3c2 1 2 3 1 3h-1c-1-1-1 0-1 1l1 1c2 0 3 3 2 5l-4 2-2-1-2-3h4l-2-2c-2-1-2-2-2-4l5-3 1 1m15 2c0 1 0 2 1 1v-2c-1-1-1-1-1 1m41 0v3l1-2-1-1m-15 2 2 1c2 1 4 3 3 4h-3c-2-1-2-1-2 2v2h2c6 2 6 9 0 11l-2 1-1 1h-1l-2-2c-4-1-5-5-2-5 1-1 1-1 2 1l2 1v-2c0-2 0-2-2-3-5-2-5-9 0-11l2-1h2m29 0 2 1c1 1 3 3 2 4h-3c-1-1-1-1-1 1l2 2c4 2 4 7 0 9l-2 1h-2l-1-1c-2 0-4-4-3-4h3c1 1 1 1 1-1l-1-2c-4-2-4-7 0-9l1-1h2m-3 5 1 2v-2h-1m-29 0c-1 1 0 3 1 3v-2c0-1 0-2-1-1m-14 1 2 1c2 1 3 3 2 3h-3l-1 1c0 2 0 2 2 3 4 2 4 8 0 8l-2 1-1 1-2-1-3-4c0-1 2-2 3 0 1 1 2 1 2-1l-2-3c-4-2-4-7 0-8l2-1h1m-2 5v1l1-1h-1m48 2 1 1v-2c-1-1-1-1-1 1m-13 0 1 1 3 3h-3c-1-1-1 0-1 1l2 2c4 2 4 7 0 8l-2 1h-2l-1-1-3-3c0-2 2-2 3-1l1 1c1-1 0-3-1-3-4-2-4-7 0-8l1-1h2m-16 2c0 2 1 2 1 1v-3l-1 2m13 2v1h1c0-1 0-2-1-1m-30 1 1 2v-3l-1 1m57 1a65 65 0 0 0 52 1c0 1-5 4-10 5-13 5-27 4-43-3-4-2-4-2-3-3h4m-24 5v1l1-2-1 1m4 33c2 1 2 1 1 3s-2 3-3 1c-4-4-7-1-7 5v3h3c4 0 4 1 4 2l-4 1h-3v20h1l2 1c1 0 2 0 1 1l-6 1h-7v-1l2-2c2 0 2 0 2-11v-9h-2c-2 0-3-2-1-2l2-1 1-2c0-7 8-13 14-10m105 0c2 1 2 1 1 3s-1 2-3 1c-4-3-7-2-7 5v3h7v3h-7v20h1l2 1 2 1h-13c-1-1 0-1 1-2h2v-20h-2c-2 0-2-3 0-3s2 0 2-2c0-8 7-13 14-10m10 1v5h-5c-3-4 1-8 5-5m-232 1c3 0 3 1 3 4 0 4-2 5-3 1-2-4-10-4-11 0-2 4-1 6 7 11 7 3 9 6 9 10 0 7-9 12-18 10-5-1-5-1-5-7 0-4 2-5 3-1 2 8 16 7 14-1 0-3-1-3-8-7-6-4-9-7-8-12 1-7 9-11 17-8m144 0c7 1 10 4 10 10 0 7-5 11-14 11l-3 1v11h2c2 1 3 1 2 2h-14c-1-1 0-2 2-2s2 0 2-16v-14l-2-1c-2 0-2-1-2-2h17m-7 3v15l2 1c8 0 12-9 7-14-1-2-9-3-9-2m108 4v3l4 1h4v2h-8v9c0 11 0 10 4 10l3 1c0 2-5 4-8 3-4-1-4-2-4-13v-10h-2c-2 0-2-2 0-3 2 0 2 0 3-3l2-4h1l1 4m-220 4c3 1 4 4 4 8v3H87v2c0 7 6 10 12 7 3-2 5 0 2 2-8 7-18 3-19-8s7-18 16-14m24 0c3 1 4 4 4 12 0 9 0 10 2 10s2 1 1 2c-2 2-6 2-7 0l-1-2-1 1c-6 3-11 3-13-1-2-5 2-9 10-11 4 0 4 0 4-4 0-3-3-5-6-5l-3 3-3 1c-2 0 0-4 3-5 4-2 8-3 10-1m37-1c11 3 12 20 1 25-9 4-17-1-17-11s7-16 16-14m80 3v2l1-2c4-4 10-4 8 0 0 2-1 3-3 2s-3 0-5 2l-1 1v15h2l2 2v1h-13v-1l1-2c3 0 3 0 3-10 0-9 0-9-3-9-2-1-2-3 1-3 7-1 7-1 7 2m29-2c6 2 9 11 5 18-4 10-19 10-22-1-4-11 6-21 17-17m36-1 1 12v11h1c5 2 3 3-4 3h-6v-1l2-2c1 0 2-1 2-10l-1-9h-1c-4-1-3-3 2-4h4m37 0c4 1 4 1 4 4l-1 3c-1 1-2 0-2-1 0-4-8-5-9-1 0 2 1 3 6 6 5 2 7 4 7 7 0 6-6 9-12 8-5-1-5-1-5-5-1-3 2-4 3-1 1 5 9 5 9 0 0-2 0-3-6-5-11-6-6-17 6-15m-251 3c-2 1-3 3-3 5v1h10v-2c0-4-3-6-7-4m63 0c-7 1-6 19 1 21 6 1 9-4 8-13-1-6-4-9-9-8m107 0c-3 1-4 3-4 9 0 9 4 14 10 11 6-4 4-20-2-20h-4m-144 12c-4 2-6 5-3 7s8 0 8-5c0-3 0-3-5-2" />
    <path fill="#7897ac" d="M179 103v3c0 1 0 1 0 0-1-1 0-2 1-3l1-1-2 1m-20 0c1 1 1 2-1 2-3-1-3 1-1 1 0 1 0 0 0 0l1-1h2l-2-2h1m7 1 1 1 1-1h-1c-1 1-1 1 0 0h-1m7 1-1 1 1-1h2l1 1c0-1-2-2-3-1m-7 1 1 2h-2 3v-1l-2-1c-1-1-1-1 0 0m3 0 1 2-1-2c-1-1-1-1 0 0m-26 1c-1 1-2 2 0 3 1 1 1 1 0 0s-1-3 2-4l-2 1m30-1h2-2m9 1 1 1v1-2h-1m8 0h-1v1l1-1v-1 1m-43 0c1 1 0 1-2 1h-1l1 1h-1v1l1-1 1-1c1 1 2 0 1-1m33 0v1h-2l2 1h1v-2h-1m7 1 1 1v1h-1l1 1c2 0 3 0 1-1l-1-2h-1m-11 1v1h1l-1-1c-1-1-1-1 0 0m-19 1c-1 0-1 1 0 0 2 0 2-1 1-1l-1 1m12-1-2 1s-1 0 0 0l2-1s1 0 0 0m-11 1h-1l1-1v1m37 1v1l1-1v-1l-1 1m3-1-1 1v1l1-1v-1c-1 0-1 0 0 0m-51 1 1 2v-1l-1-1c0-1 0-1 0 0m28 1h-1 1c2-1 1-1 0 0m15 0h-1 1c1-1 1-1 0 0m-45 0-2 1c-1-1-2 0-1 1l1 1v-2h3l-1-1m1 1-1-1 1 1m52 0v2c0 1 0 1 0 0l1-1-1-1c0-1 0-1 0 0m-2 1h1v-1l-1 1m-62 0 1 2c2 1 2 2 1 2-1-1-2 0-1 1-1-1 0-1 1-1 2 1 2 0 0-2l-1-2h-1m2 0 1 1 2 2v-1h-1l-1-2h-1m66 0v4c1 0 2 0 1-1-2-1-2-2-1-3m2 0-1 1v1-1h1v-1m-50 3h1v-1l-1 1m13 0v2h-1 2l1-1h1l-3-1m-35 1v1h-3l1 1h1l1 1v-2l1-1h-1m69 0c0 1 2 2 3 1h-2l-1-1m7 2-1 1 1-1h2-1v2l2 1-1-1-1-1h1v-1h-2m-39 0 1 1 1 1-2-2c-1 0 0 0 0 0m-2 2v2h-1 2v-2c1 0 1 0 0 0l-1-1v1m42 1-1 1c-1 0-1 0 0 0 2 0 2-1 1-2v1m-79 0v1l1-1v-1l-1 1m9 1h1s0-1 0 0l1-1-2 1m-11 0 1 2v-3l-1 1m-1 2v2-2c0-1 0-1 0 0m40 0h1-1c-1 0-1 0 0 0m-26 0v2c0 1 0 1 0 0l1-2h-1m-17 1-1 1 1-1v2c-1 0 0 0 0 0l1-1 1-1h-2m16 0-1 1c1 1 1 0 1-1m21 2v1-2 1m-39 0c-1 1 0 1 1 2v-1l-1-1c0-1 0-1 0 0m94 1v1l-1-2 1 1m-73 0 2 2-3-2h1m-19 3-1 1c0-1 0-1 0 0h2v-2c1 0 1 0 0 0-1-1-1-1-1 1m16 0v1-1c0-1 0-1 0 0m1-1 1 2c1-1 0-2-1-2m19 0-2 2s-1 0 0 0l2-2m-33 3v1l1-2-1 1m10-1 1 1v-1h-1c-1 0-1 0 0 0m80 1v2l1-2h-1m-80 2h1c1 0 1 0 0 0l-1-1v1m-20 2h-1 4-3m44 0 1 1v1-1l-2-1h1m64 1h4l-2-1-2 1m12-1-2 1h2l2-1h-2m-89 1c1 1 2 2 0 2h1c1-1-1-3-1-3v1m10 2h1l1-1c0-1-2-1-2 1m77 21v11a1426 1426 0 0 0 0-11m-121-21v1-1c0-2 0-2 0 0m3-1v1h-1 2v-1h-1m112 30a2589 2589 0 0 0 0 0m-86-28s0 1 0 0v-1 1m2-1 1 1h-1c-1 0-1 0 0 0 0 1 1 1 2-1h-2m-11 2h2l-2-1h-1l1 1m14 1 2 1s0 1 0 0l-2-2v1m10 2 1 2v-3l-1-1v2m-41-1-1 1-1-1 2 1 1-1h-1m29 1c0 1 0 2-1 1l-2-1v2-1h4v-2h-1v1m16 0v1-2 1m-2 0v1l1-1-1-1v1m-46 0 1 1c0 1 0 1 0 0l-1-1c0-1 0-1 0 0m41 1h2c1 1 1 1 0 0h-2m105 1c-1 1 0 2 2 1 1 0 1 0 0 0l-2-1v-1 1m-133 0 3 2-1-1-2-1m143 1h2-2m-6 22v11a1306 1306 0 0 0 0-11m5-20c0 1 0 1 0 0v-1 1m-137 0 2 1v-1h-2m-5 2h1c1 1 1 1 0 0h-1c-1 0-1 0 0 0m-2 0v2c1 1 1 1 0 0v-2h1-1m-7 1 2 1 1 1-1-1-1-1h-1m32 1 2 1-1-1-1-1v1m12 1c-1 0 0 0 0 0h1c0 1 0 1 0 0h-1m2 0h1l-1-1v1m-11 0 1 1c1 0 1 0 0 0l-1-1c-1 0 0 0 0 0m-37 2v1-2 1m-5 0v1-2 1m48 0 3 2 1 1 1 2v-3c-1 1-1 0-3-2h-2m-15 2v1-2 1m6 0v1-2 1m16-1 1 2v1-1l-1-2c-1 0-1 0 0 0m-22 3 1 1 1 1-1-1-1-1c0-1 0 0 0 0m-24 3v1l1-1-1-2v2m-4-1v2-2m15 0-1 1-1 1c-1 0-1 0 0 0l2-1h1v-1h-1m31 1h2l-1-1-1 1m-12 3v1-2 1m6-1v1-1c0-1 0 0 0 0m15 0-1 1 1-1h1-1m82 0 1 2 1 1-1-1-1-2-1-1 1 1m-134 1-1 1 2-2-1 1m-7 0 2 1h-1l-1-1c-1 0 0 0 0 0m63 1 1 1c0 1 0 1 0 0l-1-1-1-1 1 1m-60 1v1l1-1c0-1 0-1 0 0h-1c0-1 0-1 0 0m57 0v2-2m1 0 2 1c1 0 1 0 0 0l-2-1m-2 2s0 1 0 0v-1 1m71-1h4-4m11 0h-2 4-2m-121 2 1 2v-3l-1 1m35 0 1 1 1 1-1-1-1-2v1m-36 1h-1c-1-1-1-1 0 0h2l-1-1v1m150 1-2 3 2-2 1-3-1 2m-107-1 2 1h-1l-1-1c-1 0 0 0 0 0m-16 2v1h2l-2-1m13 1v1-2 1m-52 1-1 1c0-1 0-1 0 0l1-1v-2 2m1-1v2-2m52 1v1c1 1 2 0 2-1s0-1 0 0h-2v-1 1m-2 1h1l-1-1-1-1 1 2m-55 0 2 2 1 1-1-2-2-1m60 1v1l2-2-2 1m-16 0v2-1l1-1h-1m-13 0 2 2-2-3v1m131 0c-1 1 0 1 2 1h2-2l-2-1c1 0 1 0 0 0m13 1h-4 2c2 0 3 0 2-1v1m-103 0 2 2-2-2c-1 0 0 0 0 0m64 11v5a313 313 0 0 0 0-5m17-3v8l1-8v-9l-1 9m-145-7v1-1l-1-1 1 1m163 3-1 3c0 1 0 1 0 0l1-3v-4 4m-145-3-1 1h1c0-1 1-1 1 1v1l1-2c-1-1-1-2-2-1m14 1 3 3h1l-2-1-1-2h-1m-36 1-1 2h-1c1 1 2 0 2-2v-1 1m18 0v1-2 1m144 1c0 2 0 2 1 1v-2c-1-1-1 0-1 1m-161 0v1-2l1 1v1-3l-1 2m41-2 1 1 1 1-1-1-1-1s-1 0 0 0m-47 1h3-3m64 1v1-2 1m5 0v1-2 1m-2 0 1 2-1-2c0-1 0-1 0 0m53 1 1 1v-2l-1 1m-111 1-1 1 1-1v-1 1m40 0 1 1v-1h-1m-44 2h1v-1 1h-1c0-1-1 0 0 0m36 0 1 1 1 1-1-1-1-1m-29 1h2-2m16 1v1-2 1m141 0-2 2 2-2 1-1-1 1m-159 0v4h1c-2-1-1-3 0-4l1-1-2 1m152 3-4 3 4-3m-93-1v2c-1 0-1 0 0 0v-4 2m1 0h1v-2c1 0 1 0 0 0l-1 2m-57 0v1l1-1h1v-1l-2 1m0 0-1 1 1-1v-1 1m41 1 1 1h1v-1h-2m29 1h-1 1l1-1h1l-2 1m81 2-2 2 2-2 2-3-2 3m-84 0-1 2v-1l1-1 1-1-1 1m-66 0v3-1c0-2 0-2 1-1v1l-1-2m54 1 1 1h1-1l-1-1c-1 0-1 0 0 0m-14 2 1 1v-2l-1 1m4-1 1 1h1l-1-1h-1c-1-1-1-1 0 0m27 1v1-2 1m-29 1v1-3 2m-47-2 2 2v-1l-2-1m151 1-2 2 2-2 1-1-1 1m-78 1h2-1l-1-1v1m-69 1h1l-1-1v1m106 0h1-1c-1 0-1 0 0 0m15 1h1-1s-1 0 0 0m-95 1v3h1v-4l-1 1m116 0-2 1 2-1 1-1-1 1m-58 0v1c1 1 1 1 0 0l1-1h-1m-7 2v1-2 1m-5 1s0 1 0 0v-1 1m-31 2v2l1-3v-2l-1 3m25-2 1 3 1 1-1-2-1-2v-1 1m70 0-1 1 3-1h-2m-93 0v3-1l1-2h-1m14 0 1 1h1l-2-1m-28 2 1 2h1l-2-3v1m46 1-1 1 1-1c2-1 1-1 0 0m30-1h2-2m11 0h1c1 0 0 0 0 0h-1m-90 2v2-2m31 1h1v-1l-1 1m-32 0v1-2 1m85 0h3-3m6 0h3-3m-37 1c0 1 0 1 0 0h2c1 0 1 0 0 0h-2m-59 1 1 1 1 1-1-1-1-2v1m23 1h-2 2l1-1s1 0 0 0l-1 1m18-1 1 1 1 1-1-1-1-1s-1 0 0 0m71 1-1 1c1 0 0 0 0 0h-1l1 1 2-1-1-1m-75 1v4c1-1 1-5-1-5l1 1m27 0 1 1-1-1h-1 1m-60 1 1 1 1-1h-1l-1-1v1m30 1 2 1c0 1 0 1 0 0l-2-1m48 1h2-2m14 0h1c1 0 1 0 0 0h-1m-8 1h4l-2-1-2 1m-5 2h1-1s-1 0 0 0m9 0h2-2m-53 28h1c1 0 0 0 0 0h-1m104 0h2-2m-100 1 1 2-2-2h1m112 0 2 2h1l-3-2h-1 1m-3 2-1 1h1l1-2 1-1-2 2m-15 0-1 1 1-1 2-1-2 1m-217-1h2-2m112 1-1 2 1-1 1-2-1 1m5 0h1-1s-1 0 0 0m17 0v2-1l8-1h8-16m-127 1 1 1v-2l-1 1m113 0 1 1 2 1-1-1-2-1m109 0-2 1c-1-1-1-1 0 0l1 1 1-2m-230 0h2-2m156 1 2 1 2 1-1-1-2-1h-1m82 1-1 2 2-3-1 1m-95 0v16-8l1-8v-1l-1 1m-152 1v2l1-1c0-2 0-2-1-1m123 3 1 4-1-4v-3 3m24 11 1 7a515 515 0 0 0-1-7m82-11v2-3 1m31 0v2-3 1m-90 3v1-2 1m-135 0h2-2m26 0h2-2m36 0h3-3m83 0 1 2v2-2l-1-2m8 0h1c1 0 0 0 0 0h-1m16 0h3-3m76 0h2-2m-215 1 1 1c1 0 1 0 0 0l-2-2 1 1m63 0 2 1c0 1 0 1 0 0l-2-1h-2 2m105 0h2-2m29 0h6-6m-258 0 2 1 1 1-1-1-2-1m217 1v1-2 1m26 9v5a267 267 0 0 0 0-5m6-10v2-1l1-1h-1m34 0v1c0 1 0 1 0 0v-1c-1 0-1 0 0 0m-103 2-1 1 1-1 1-2-1 2m52-1-1 1h-1l2-1c0-1 0-1 0 0m3 0v1h1v-2l-1 1m29 0-2 1h-1 1l3-1h-1m-239 1-2 2 2-1 1-2-1 1m68-1h2-2m107 0h2-2m-151 2-1 1c0 1 0 0 0 0l1-2 1-1-1 2m5-1h2-2m65 0v19-19m-68 1v1l1-1 1-1-2 1m174 9v4a215 215 0 0 0 0-4m31-2v4a144 144 0 0 0 0-4m-74-7h1c1 0 0 0 0 0h-1m-3 2c-1 1-1 1 0 0m89 1 1 1v-2l-1 1m-106 1-1 1 3-3-2 2m120-2 1 1c1 0 1 0 0 0l-1-1m-233 1h-1 2v-1l-1 1m-12 1v1-2 1m23 2v2-4 2m-46 0 1 1-1-1-2-1 2 1m136-1h2-2m-63 3v1-2 1m-66-1v1-1c0-1 0 0 0 0m169 2v2-3 1m23 0c0 1 0 2 1 1v-3l-1 2m57-2 2 2s1 0 0 0l-2-2-1-1 1 1m-122 1v9-10h6-3l-3 1m29 3v3a43 43 0 0 0 0-3m-75-1v2-3 1m4-1s0 1 0 0v-1 1m-81-1v2-2h16-16m257 2 2 1-3-3 1 2m-223 0 1 3v3-6h-1m-9 1c-2 1-2 1 0 0l1-1-1 1m-29 1s0 1 0 0v-1 1m254-1 4 1-4-1m-281 2v1c0 1 0 1 0 0l2-2h1-1l-2 1m18 1v1-2 1m53 1v2-3 1m-19 1v1-2 1m144-1 2 3-1-2-1-1m78 0v2-1l1-1h-1m-61 2v1-1l1-1-1 1m32 0v1-2 1m-140 1v1l2-3-2 2m111 0v1l2-3-2 2m42 0h1v-1c-1-1-1 0-1 1m-257 0v1-2 1m18 0-1 2 2-1 1-2-2 1m271-1-2 2v1l2-3m-195 0 1 2 2 1-2-2-1-1m116 2-1 1 1-1c2-1 1-1 0 0m54 0h1c1 0 0 0 0 0h-1m-120 1c-1 1 0 1 5 1h5-5l-4-1c1 0 1 0 0 0h-1m-45 0h2-2m6 1h-2l3-1-1 1m81-1v1-1c-1 0-1 0 0 0m20 0h2-2m75 0h1-1c-1 0-1 0 0 0m-214 2h2c1 0 1 0 0 0l-2-1v1m112-1h3-3m48 0h2-2m-220 1h3-3m29 0h2-2m20 0h2-2m41 0h3-3m108 0h2-2m57 0h2-2m17 0h2-2" />
    <path fill="#5a7793" d="M190 42c-52 4-94 37-110 85-12 36-6 77 14 104l4 5-2-4A121 121 0 0 1 201 45c96 0 154 103 103 187-3 4-2 4 0 1 15-18 24-49 21-77-3-38-23-72-54-93-23-16-53-23-81-21m-25 60v4c1 0 1 0 0 0-1-1 0-3 1-4h1-2m3 0 2 1c0 1 0 1 0 0l-2-1m-13 1-1 1 1-1h3v-1l-3 1m27 0v1h-2v1h1l1 1v-3l-1-1 1 1m-14 1v1-1m-14 1v2h1l-1-2v-1 1m22 0-2 1-1 1 2 1h1l-1-1c1 0 2-1 1-2-1 0-1 0 0 0m3 2v1h-1 1c2 1 2 0 0-1l-1-1 1 1m11-1v3-1l1-1-1-1c-1 0 0 0 0 0m-31 1 1 2h1l-3-3 1 1m6 1c-1 1 0 2 1 2-2-1-1-2 0-2s1 0 0 0h-1m-21 1h1l-1-1v1m12 0v1h-1c1 1 2 0 2-1h-1m32 0v1l1 1-1-2-1-1 1 1m-31 1h1v-1l-1 1m16 0h2-1v-1l-1 1m5-1 3 2-1-1h-1l-1-1m-24 1c-1 1 1 2 1 2l-1-2v-1 1m43 0 1 1-1 1h1c1-1 1-2-1-2-1 0-1 0 0 0m-10 1c0 1 2 2 3 1l-3-1c0-1 0-1 0 0m-16 0 4 2v-1c-1 1-3 0-3-1h-1m-27 1v1c-1-1-1-1 0 0v-2 1m-7 0 2 1v1-1l-2-1c-1 0 0 0 0 0m20 0c-1 0-1 0 0 0h1-1m38 1h1v1-1h-1m-47 1-1 1h-1l2-2v1m53 0 1 3v1h-1 1v-5l-1 1m3 0v2c1 1 1 1 0 0v-1h1l-2-2 1 1m-38 2c-2 0-2 2-2 3v-1l4-3c1 1 1 1 0 0l-2 1m32-1-1 1h-1 2v-1m-28 1v1h1l-2-1h1m-41 1c-1 1-1 1 0 0l2-1-2 1m3 0 1 2c-1 0-1 0 0 0l-2-2h1m73 1-1 1c-1 1-1 1 0 0l1-2v1m-55 1-1 1h1l1-2h1l-2 1m16-1 1 1v-1h-1m-35 2c0 1 0 0 0 0v-1 1m7-1-2 1h2v-1m18 1v4-4c1 0 1 0 0 0m-2 2h-1l-1-1v1l2 1v-2 1m3-1h2c1 0 1 0 0 0h-2c0-1 0-1 0 0m7-1 2 1 1 2h-2 2l-3-3m-32 1 1 2h1l-1-2h-1m78 1c2 2 0 4-2 2h-1c0 1 2 2 3 1s1-4-1-4l1 1m-39 1-1 2-1 1 1-1 1-4v2m-41 0h-1v1l1-2v1m19 0 1 2-1-2c0-1 0-1 0 0m19 0h1l-1-1v1m-37 0v1l1-1h-1m6 2-1 1c0 1 0 1 0 0l2-2s1 0 0 0l-1 1m7 0v1l1 1-1-2-1-1 1 1m14 0 2 1-1-1-1-1v1m-26 0-2 1c-1 0-1 0 0 0l3-1h-1m-11 1v2c0 1 0 1 0 0l1-2v-1l-1 1m47 0h-1v1l2-2-1 1m44 0c-1 1 0 3 1 3l-1-1 1-2v-1l-1 1m-73 1h1c0 1 0 1 0 0h-1m3 0h2-1l-2-1 1 1m-17 0v2-1h2l-2-1m29 2v3-3c0-3 0-3 0 0m-31-1 1 1v-2l-1 1m33 0v3h1l-1-1v-2l1 2h1l-2-2m75 1-1 1 1-2v1m-82 1v1l1-1h-1m86 1v1-1l-1-1 1 1m-74 0-1 2-1 1 1-1 1-3v1m-22 1v3l-1-1c-1 0-1 0 0 0l1 1v-4 1m10 0 1 1 1 1-1-1-1-1m-24 1 1 1v-2l-1 1m91 1 1 2-2-4 1 2m-75 0c0 1 0 2 1 1 0 0 0-1 0 0l-1-1 1-1c-1-1-1-1-1 1m95 0 1 1v-1l-1-2v2m-113-1 1 1v-1h-2 1m22 2-1 1-1 1 1-1 1-2v1m11 0-1 1c-1 0-1 0 0 0h1v-1m70 1v2-2l1-1-1 1m12 0v2-2l-1-1 1 1m-113 0h-1c-1 0-1 0 0 0h2-1m92 1 1 1v-1h-1m-59 1-1 1 1-1h1-1m107 1v1l1-1h1c1 1 1 1 0 0h-2m-40 1h4v47-47h-4m-99 1-1 2 2-2 1-1-2 1m109 1v2-4h4-4v2m-119-1v1l1-1h-1m2 0v1c0 1 0 1 0 0v-1m37 1 1 2 2 2-1-1-2-2a869 869 0 0 1 0-1m4 0 1 2 2 1h1l-3-2-1-1v-2 2m-12 0v2-2h1-1m-2 0v1c1 0 1 0 0 0v-1c1 0 1 0 0 0m-15 3v2l1-4-1 2m2-2v5-5m-3 1-1 1 1-1 1-1-1 1m-9 0 1 1c0 1 0 1 0 0l-1-1c-1-1-1-1 0 0m5 1v1-2 1m18-1 3 2-1-1-2-1m-27 1v1c0 1 0 1 0 0v1-2m2 1v1-2 1m32 1-1 2v1l1-1v-3 1m9 0 1 1-1-1h1-1m-13 0-1 1c-1-1-1 0 0 0l1-1c0-1 0-1 0 0m1 0v1h1-1c0 1 0 1 0 0v-1c1 0 1 0 0 0 0-1 0 0 0 0m113 1v1l1-1v-2l-1 2m-104-1 1 1h1l-1-1h-1c-1 0 0 0 0 0m-1 1 2 2-1-1-1-1m-18 2 1 2c0 1 0 1 0 0l-1-2c-1 0-1-1 0 0m136 0h-2l-2 1h2c2 0 3-1 2-2v1m-157 0h2l-1-1-1 1m144 0 4 1-2-1h-2m-115 1h2v-1 1h-1l-1-1v1m13 0h1c1-1 1-1 0 0h-1v-1 1m-28 0 1 2v2-2l-1-2m2 3c0 2 1 2 2 1v-2c-2-1-2-1-2 1m2-1v2c-1 1-2 1-2-1s1-2 2-1m135 22v12a1401 1401 0 0 0 0-12m-107-21v1l1-1 1 1-1-1h-1m101 24 1 23v-24l-1-23v24m-97-22v1-1c0-1 0-1 0 0m-40 2 2 1-2-2v1m20-1-2 3v-1l2-2 1-1-1 1m15 0 1 1h1c0-1-1-2-2-1m2 1 2 2h1l-1-1-1-2h1c-1-1-2 0-2 1m-49-1v1h1l-1 1c1 1 1 1 1-1l-1-1m2 2 1 2v-2c0-2 0-2 1-1l1 1 2-1h-3c-1-2-2-1-2 1m14 0v1l1 1v-1l-1-1c-1 0-1 0 0 0m21 1v3-3l1-1-1 1m-2 1c0 1 0 1 0 0v-1 1m4-1h1c1 0 1 0 0 0h-1m-42 0 1 2 1 1-1-1-1-2m135 4-3 5 3-4 3-3 1 1 1 1-1-1c-1-2-2-2-4 1m-82-1v-1 1m-5-1 1 1h1c1 0 1 0 0 0l-2-1m-6 2 2 2 1 1-4-4 1 1m13 1-1 1 2-2-1 1m-50 0v3l2-2c0-1-1-2-2-1m5 1s0 1 0 0v-1 1m10-1-1 1 1-1h1l1 1c1-1-1-1-2-1m-14 1v1l-1-1 1-1v1m-4 1 1 1v-1c-2-2-2-2-1 0m22 0 1 1c0 1 0 1 0 0l-2-2 1 1m14 1v2l-2-1-2-1v1l2 1c2 1 2 1 2-2v-2 2m1 1c0 2 1 2 2 1v-3c-1-1-2 0-2 2m22-2 1 1-1-1h-1 1m-62 0 1 2c1 0 1 0 0 0v-1l-1-1m42 1v1c-1 2-1 1-1 0 0-2 0-2 1-1m-22 1 1 1v-2l-1 1m2 0 1 2v-2h2-1l-1-1-1 1m36 0-1 1 2-1 1-1-2 1m-24 0c-1 1-1 2 1 3l1 1-1-1-1-3c1 0 1 0 0 0m12 1-1 2-1 1 1-1 1-2m-40 1-1 1c0-1 0 0 0 0l1-1 1-1-1 1m18 0 2 2-1 3h1c1-2 0-5-2-5-1 0 0 0 0 0m38 0v2h1v-2h-1m-2 1 1 2v-2h-1m1 0-1 1v-2l1 1m111 1-1 2 1-2h2l2 2c-2-3-3-4-4-2m-38 0h2v31-32h-1c-2 0-2 0-1 1m7 4v5-9h2l2-1h-4v5m-132-3-1 1 1-1 4 3 1 1c0-2-4-5-5-4m13 0 1 2v-2c0 1 0 1 0 0h-1m19 0h-2v1h2l1-1v-1l-1 1m-23 1c-1 0-1 0 0 0h3-3m40 0 2 2v-1l-2-1m-52 0v1c-1 1-1 1 0 0l1-1h-1m12 1 2 2-1-2h-1m159 0 4 6a56 56 0 0 0-4-6m-116 2v2-3 1m-51 0v3-2l1-1h-1m52 1v1l1-1v-2l-1 2m-17 0v1l1-1 1-1-2 1m7 0 1 1 1 1-3-3 1 1m5 0 2 3h-1l-1-3c1 0 1 0 0 0m111 0v2l1-2h-1m-139 2-1 1 2-1 1-1-2 1m44 0h-2 2c1-1 0-1 0 0m-68 0 2 1 1 1-1-1-2-1m42 0 1 2 1-1c0-1-1-2-2-1m3 0c-1 1 0 3 1 3h-1v-2l1-1c0 1 0 1 0 0h-1m-6 1 1 1v-2l-1 1m4 0v1-2 1m12 1h3v-1l-1 1h-1l-1-1v1m111 3-1 4h-1 1l1-8v4m6-3h2-2m-169 2 1 2v-2l-1-2v2m26-2-1 2h1v-2h1-1m-2 2h-1v1c1 1 1 0 1-2v-1 2m-18 1c0 1 0 1 0 0v-1 1m-8-1h1v1c1 1 1 1 0 0l-1-2h-1l1 1m66 0c-1 1-1 1 0 0s1 0 1 1c0 2 0 2-1 1-1 0-1 0 0 0 1 1 1 1 1-1s0-2-1-1m3 0-1 1h1v-1h1-1m-22 1 1 1-1-2h-1l1 1m123 1v1-2 1m-149 0 1 1 1 1-1-1-1-1m22 1 1 2v-3l-1 1m-11 1 1 3 1 2v-2c0-1-2-4-4-4l2 1m13 0h-1v-1l1 1m-44 0 1 1v1h2v-1h-1l-2-1c-2-1-2-1 0 0m61-1 3 3h-1l-2-2v-1m-56 1-1 1 1-1c1-1 1-1 0 0m65 0c2 2 3 3 3 5l1 2v-2c0-2-3-5-5-5h1m47 7-1 8h1l1-8v-8l-1 8m49-4-1 2 4-5-3 3m-120-1-1 1 1-1 1-1-1 1m-37 0s-1 0 0 0h2l-1-1-1 1m16 1c0 2 0 3-2 1l-1-1 1 1c2 2 2 2 2-1v-2 2m2-1-1 2c0 2 1 2 2 1s1-1 0 0-1 0-1-1l1-2h-1m131 4-3 4a92 92 0 0 0 3-4m-93-3 1 2v2-2l-1-2c0-1 0-1 0 0m4 1v3l-1-1h-1c0 1 1 2 2 1v-3c-1-1-1 0 0 0m65 5v2a66 66 0 0 0 0-2m-123-3s0 1 0 0v-1 1m21 0-2 2-1 1c1 0 4-3 3-4v1m19 0-1 1 1-1 1-1 1 1 1 1c1 0 1 0 0 0l-1-1-1-1-1 1m-30 2 2 1v-1l-2-1v1m-14-1 2 2-1-1-1-1m5 0 1 1c1 0 1 0 0 0l-1-1m61 1-2 1-1 1 3-3v1m88 1-2 2 2-2 2-2-2 2m-113-1-1 1 2-1v-1l-1 1m29 0s0 1 0 0h2v-1l-2 1m-53 1 1 1c1 1 1 1 0 0l-1-1m2 0 1 1v-1c1 0 1 0 0 0h-1m-12 1 1 1v-1h-1m-3 0 1 1h-1l1-1h-1m-5 0v1h3l-3-1m74 1c0 2 0 2-1 1v-1l1 2v-3 1m2 1v2-2l1-2c0 1 0 1 0 0-1-1-1 0-1 2m-29 1v2-2c0-3 1-3 2-2l1 1-1-1c-2-1-2-1-2 2m13-2h2c0-1 0-1 0 0h-2l-1-1 1 1m10 1s0 1 0 0v-1 1m-30 0c-1 3 3 7 4 6l-1-1c-2-1-3-2-3-4v-3 2m3-1 1 2c0 1 0 1 0 0v-2h-1m107 2-1 1 4-3-3 2m-5-1-1 1 2-2-1 1m-115 0 1 1-1-1c-1 0-1 0 0 0m76 1 1 1v-1c0-1-1-2-1 0m-81 1-1 1h1l1-1 1-1-2 1m8 0c2 1 2 2 1 2l-1 1c2 0 2-2 0-3-1-1-1-1 0 0m107 1-2 1 5-2-3 1m-60 1 1 1-1-2-1-1 1 2m44-1h1-1s-1 0 0 0m-97 1v1h2l-1 1s-1 0 0 0l1-1c0-1-1-2-2-1m24 1 1 2h1l-3-3 1 1m-27 0v1-1c0-1 0-1 0 0m50-1v4-4c-1 0-1 0 0 0m18 1h2-2s-1 0 0 0m-16 2c0 2 0 2 1 1v-2c-1-1-1-1-1 1m1 0v1l-1-1c0-2 0-2 1-1v1m-30 2c0 2 0 3 2 1v-2l-1 3-1-2v-2 2m17-1 2 1-2-1c-1 0-1 0 0 0m16 1-1 2 1-2 1-1-1 1m-22 0-1 1 1-1 2-1-2 1m-16 0 1 1c2 1 2 1 2-1v-1 3l-1-1-2-2v1m66 0h1l-1-1v1m13 0h2l-1-1-1 1m-95 0 1 1c2 0 2 1 1 2l1 2c1 0 0-4-2-5h-1m13 0v1h1v-1c1 0 1 0 0 0h-1m32 1 2 1-2-1c-1-1 0-1 0 0m42-1h4-4m-56 3 1 2c0 1 0 1 0 0l-1-2v-2 2m3-1 1 2-1-1 1-1v-1l-1 1m3 0v3c1 0 1 0 0 0v-3h1c1 1 1 1 0 0h-1m-33 0h1v3-3h-1m5 1v1-2 1m48 1-1 1 4 2-2-1c-1-1-2-2 0-3l-1 1m27-1h2-2m15 0h1-1c-1 0-1 0 0 0m-85 1 3 1-1-1h-2m-6 2-1 1 2-2-1 1m103-1v1l-1 1 2-1c1-1 1-2-1-1m-111 2 1 1v-1l-2-1 1 1m18-1 1 1h1l1-1 1-1-1 1-1 1v-1l-2-1v1m23 0v2h1l-1-1v-1m-4 2v3c1 0 2-1 1-2 0 2-1 2-1 0v-1h1-1m70 1-1 1 3-2-2 1m-75-1 2 2 1 1-1-2-1-1h-1m9 2-1 2-1 1 3-3h-1m54 0h2-2m-63 2 2 1-2-1m61 1h1-1c-1 0-1 0 0 0m-59 0 1 1 1 1v-1l-1-1h-1m103 29-4 5 1-1 4-4s1 0 0 0h-1m8 0h2l1 1-1-1h-2m6 1-1 1 1-1 1-1-1 1m-120 1h-1a309 309 0 0 1 1 0m-113-1h2-2m133 1v1l8-1h8-16m-139 1c-2 1-2 1 0 0l1-1-1 1m121 0-1 2v-1l2-1v-1l-1 1m4 0 2 1-2-2v1m101 1-1 1 1-1c1-2 1-2 0 0m6 0 3 1-1-1h-1l-2-1 1 1m-217 1v1-2 1m-10-1h2-2m111 1v1-1c1-2 1-2 0 0m-119 0-1 1 1-1 1-1-1 1m13-1 1 2 1 1-3-3h1m132 1h1v15a77 77 0 0 1 0 15v-15l-1-16v1m8 0h3c1-1 1-1-1-1l-2 1m-30 4v2-4 2m38-2 2 1v1l-1-2h-1m67 2v2-4 2m-5 0 1 2v-3c-1-1-1 0-1 1m-208-1 1 1c1 0 1 0 0 0l-1-1m103 1v1-2 1m-120 2v1-2 1m262 0v1-2 1m-257 0 3 4v-1l-3-2v-1m32 1h1-1s-1 0 0 0m62 0h2-2m83 0v5l1-1c1 0 1 0 0 0v-1l-1-3c-1 0-1 0 0 0m24 0h2-2m75 0h2-2m-96 2c-1 1-1 1 0 0m16-1-3 3-2 1 2-1 3-3 1-1-1 1m75 0-2 2 2-1 1-1 1-1-2 1m-160 1 1 1c1 0 1 0 0 0l-1-1c0-1 0-1 0 0m96-1 1 1h2-1l-2-1m-182 2-2 2 1-1 2-2 1-1-2 2m62-1-4 5 1-1 4-4 1-1-2 1m15 0 1 1h1l-1-1h-1m46 1 1 1v-2l-1 1m136 1v2-3 1m-251-2 2 1-3-1h-1 2m243 0h1c1 0 0 0 0 0h-1m-78 1-2 1h1l2-1 1-1-2 1m-202 0 4 5-1-1-3-3v-1m31 1-1 1 2-1 1-1-2 1m93-1-1 10c0 10 1 11 2 10l-1-10v-10h5-5m67 1-2 1-1-1v1c1 1 4-1 3-2v1m38-1v10c0 10 0 11 1 10 1 0 1 0 0 0l-1-10v-10h5-5m24 0h2-2m8 0v17-17h4-4m-142 9v9-17 8m90-8 2 1-2-1c-1-1-1-1 0 0m15 9v10l1-10-1-9v9m-216-9 1 1h2l-2-1h-1m248 9v5a224 224 0 0 0 0-5m-40-7 1 1-2-3 1 2m27 6v4a138 138 0 0 0 0-4m-139-5 1 1-2-3 1 2m63 0c-2 2-2 2 0 1l2-3-2 2m10 6v4a161 161 0 0 0 0-4m5-6-1 1v15l1-8v-7l1-2 1-1-2 2m103-1 2 1-1-1h-1m-273 0 1 1h1l-1-1h-1m28 2v1H86v1h12v-2l-1-2v2m14-2-1 1 2-1h-1m15 5v3a72 72 0 0 0 0-3m-24-3v1-2 1m115 0-1 1 3-2-2 1m116-1 3 2h-1l-1-2h-1m-261 1 5 4v1c1 0-3-5-5-5-1-1-1-1 0 0m49 0v1-1c0-1 0 0 0 0m88 1h3-3m95 6 1 4a123 123 0 0 0-1-4m-156-3v2-4 2m19-2v1-1c0-1 0-1 0 0m-103 0 2 1h1l-1-1h-2m273 0 1 1v-1l-1-1v1m-82 2v1-2 1m-134-1-1 1h-1 1l1-1c0-1 0-1 0 0m41 1v1-2 1m-19 2v1-3 2m187-3 1 1 2 1-2-1-1-1m-248 3v1-3 2m133-3h1c1 0 0 0 0 0h-1m35 2v2-3 1m25 0c0 1 0 1 0 0v-1 1m-206-1 2 2-2-2s-1 0 0 0m29 0h2-2m172 2v1-2 1m73-1 1 1 2 1-2-1-1-1m-133 4v3a48 48 0 0 0 0-3m-133-1 1 1v-2l-1 1m90-1v1-2 1m-5 1v1-2 1m184 1v1-2 1m-233 0 1-1h1l-2 1m226-1 1 1h1l-2-1m-257 1v2l1-1-1-1m-5 3c-1 1-1 1 0 0v-2 2m196 0-1 1 2-2-1 1m56-1v1-1h2-2m12 1c0 2-1 3-4 4h-2 2c3 0 5-1 5-4v-2l-1 2m-269 1-1 1 2-3-1 2m-17 0v1-2 1m33-2 2 2 1 1-1-2-2-1m19 2s0 1 0 0v-1 1m-24-1 6 6-2-1-3-4-1-1m17 0h1c2 0 1 2-2 4-1 1-1 1 0 0 2-1 4-2 3-3l-2-1m65 1-2 2v1l3-4-1 1m-67 1h-1l3-1-2 1m47-1 3 4v-1l-2-2-1-1m6 1 2 1-2-1-1-1 1 1m167-1c0 1 1 2 3 2l2-1h-2l-2-1h-1m-243 2-2 1 2-1 1-2-1 2m178-1 1 2-1-1v-1m76 1s0 1 0 0v-1 1m-59 0-1 1 3-2-2 1m29-1v1h-1c1 1 2-1 1-1m-207 0 3 1c2 0 2-1-1-1h-2m233 1-2 2-1 1c2 0 4-3 3-4v1m19 1-2 1 2-1 1-2-1 2m-224 0c-1 0-1 0 0 0l1-1-1 1m6-1h3-3m187 0 1 1 1 1-1-2h-1m-248 1h2-2m107 0c0 2 0 2 7 2h6-6l-6-1v-1c1 0 1 0 0 0h-1m-101 1h-1l3-1-2 1m39 1h1c1 0 1 0 0 0l-1-1v1m120 0h6c7 0 6 0-2-1l-4 1m-166 1h2l-1-1c-1 0-2 0-1 1m28 0h2l-1-1-1 1m62 0h2l-1-1c-1 0-2 0-1 1m108 0h1c1-1 0-1-1-1v1m56 0h1v-1l-1 1m17 0h2l-1-1-1 1" />
  </g>
</svg>